<?xml version="1.0" encoding="UTF-8" standalone="no"?>
<!DOCTYPE svg PUBLIC "-//W3C//DTD SVG 1.1//EN"
 "http://www.w3.org/Graphics/SVG/1.1/DTD/svg11.dtd">
<!-- Generated by graphviz version 2.30.1 (20180828.1746)
 -->
<!-- Title: %3 Pages: 1 -->
<svg width="652pt" height="332pt"
 viewBox="0.00 0.00 652.00 332.00" xmlns="http://www.w3.org/2000/svg" xmlns:xlink="http://www.w3.org/1999/xlink">
<g id="graph0" class="graph" transform="scale(1 1) rotate(0) translate(4 328)">
<title>%3</title>
<polygon fill="white" stroke="white" points="-4,5 -4,-328 649,-328 649,5 -4,5"/>
<!-- [root] aws_iam_user.lb (expand) -->
<g id="node1" class="node"><title>[root] aws_iam_user.lb (expand)</title>
<polygon fill="none" stroke="black" points="331.25,-108 224.75,-108 224.75,-72 331.25,-72 331.25,-108"/>
<text text-anchor="middle" x="278" y="-86.3" font-family="Times,serif" font-size="14.00">aws_iam_user.lb</text>
</g>
<!-- [root] provider[&quot;registry.terraform.io/hashicorp/aws&quot;] -->
<g id="node3" class="node"><title>[root] provider[&quot;registry.terraform.io/hashicorp/aws&quot;]</title>
<polygon fill="none" stroke="black" points="278,-36 27.9838,-18 278,-3.55271e-15 528.016,-18 278,-36"/>
<text text-anchor="middle" x="278" y="-14.3" font-family="Times,serif" font-size="14.00">provider[&quot;registry.terraform.io/hashicorp/aws&quot;]</text>
</g>
<!-- [root] aws_iam_user.lb (expand)&#45;&gt;[root] provider[&quot;registry.terraform.io/hashicorp/aws&quot;] -->
<g id="edge1" class="edge"><title>[root] aws_iam_user.lb (expand)&#45;&gt;[root] provider[&quot;registry.terraform.io/hashicorp/aws&quot;]</title>
<path fill="none" stroke="black" d="M278,-71.6966C278,-63.9827 278,-54.7125 278,-46.1124"/>
<polygon fill="black" stroke="black" points="281.5,-46.1043 278,-36.1043 274.5,-46.1044 281.5,-46.1043"/>
</g>
<!-- [root] output.arns -->
<g id="node2" class="node"><title>[root] output.arns</title>
<polygon fill="none" stroke="black" points="169.25,-180 98.75,-180 98.75,-144 175.25,-144 175.25,-174 169.25,-180"/>
<polyline fill="none" stroke="black" points="169.25,-180 169.25,-174 "/>
<polyline fill="none" stroke="black" points="175.25,-174 169.25,-174 "/>
<text text-anchor="middle" x="137" y="-158.3" font-family="Times,serif" font-size="14.00">output.arns</text>
</g>
<!-- [root] output.arns&#45;&gt;[root] aws_iam_user.lb (expand) -->
<g id="edge3" class="edge"><title>[root] output.arns&#45;&gt;[root] aws_iam_user.lb (expand)</title>
<path fill="none" stroke="black" d="M171.492,-143.876C190.44,-134.469 214.132,-122.708 234.356,-112.667"/>
<polygon fill="black" stroke="black" points="235.974,-115.771 243.375,-108.19 232.862,-109.502 235.974,-115.771"/>
</g>
<!-- [root] meta.count&#45;boundary (EachMode fixup) -->
<g id="node4" class="node"><title>[root] meta.count&#45;boundary (EachMode fixup)</title>
<ellipse fill="none" stroke="black" cx="176" cy="-234" rx="176.202" ry="18"/>
<text text-anchor="middle" x="176" y="-230.3" font-family="Times,serif" font-size="14.00">[root] meta.count&#45;boundary (EachMode fixup)</text>
</g>
<!-- [root] meta.count&#45;boundary (EachMode fixup)&#45;&gt;[root] output.arns -->
<g id="edge2" class="edge"><title>[root] meta.count&#45;boundary (EachMode fixup)&#45;&gt;[root] output.arns</title>
<path fill="none" stroke="black" d="M166.36,-215.697C161.873,-207.644 156.441,-197.894 151.476,-188.982"/>
<polygon fill="black" stroke="black" points="154.454,-187.137 146.53,-180.104 148.339,-190.544 154.454,-187.137"/>
</g>
<!-- [root] provider[&quot;registry.terraform.io/hashicorp/aws&quot;] (close) -->
<g id="node5" class="node"><title>[root] provider[&quot;registry.terraform.io/hashicorp/aws&quot;] (close)</title>
<ellipse fill="none" stroke="black" cx="419" cy="-162" rx="225.295" ry="18"/>
<text text-anchor="middle" x="419" y="-158.3" font-family="Times,serif" font-size="14.00">[root] provider[&quot;registry.terraform.io/hashicorp/aws&quot;] (close)</text>
</g>
<!-- [root] provider[&quot;registry.terraform.io/hashicorp/aws&quot;] (close)&#45;&gt;[root] aws_iam_user.lb (expand) -->
<g id="edge4" class="edge"><title>[root] provider[&quot;registry.terraform.io/hashicorp/aws&quot;] (close)&#45;&gt;[root] aws_iam_user.lb (expand)</title>
<path fill="none" stroke="black" d="M384.868,-144.055C365.785,-134.581 341.806,-122.677 321.4,-112.546"/>
<polygon fill="black" stroke="black" points="322.82,-109.343 312.307,-108.032 319.707,-115.613 322.82,-109.343"/>
</g>
<!-- [root] root -->
<g id="node6" class="node"><title>[root] root</title>
<ellipse fill="none" stroke="black" cx="287" cy="-306" rx="47.169" ry="18"/>
<text text-anchor="middle" x="287" y="-302.3" font-family="Times,serif" font-size="14.00">[root] root</text>
</g>
<!-- [root] root&#45;&gt;[root] meta.count&#45;boundary (EachMode fixup) -->
<g id="edge5" class="edge"><title>[root] root&#45;&gt;[root] meta.count&#45;boundary (EachMode fixup)</title>
<path fill="none" stroke="black" d="M263.731,-290.326C248.573,-280.767 228.506,-268.112 211.391,-257.318"/>
<polygon fill="black" stroke="black" points="213.076,-254.244 202.751,-251.87 209.342,-260.164 213.076,-254.244"/>
</g>
<!-- [root] root&#45;&gt;[root] provider[&quot;registry.terraform.io/hashicorp/aws&quot;] (close) -->
<g id="edge6" class="edge"><title>[root] root&#45;&gt;[root] provider[&quot;registry.terraform.io/hashicorp/aws&quot;] (close)</title>
<path fill="none" stroke="black" d="M311.77,-290.568C327.063,-280.897 346.469,-267.185 361,-252 379.108,-233.078 394.973,-207.762 405.512,-188.969"/>
<polygon fill="black" stroke="black" points="408.655,-190.517 410.383,-180.064 402.514,-187.158 408.655,-190.517"/>
</g>
</g>
</svg>
